<svg xmlns="http://www.w3.org/2000/svg" xmlns:xlink="http://www.w3.org/1999/xlink" width="500" zoomAndPan="magnify" viewBox="0 0 375 374.999991" height="500" preserveAspectRatio="xMidYMid meet" version="1.0"><defs><g/><clipPath id="fa9b92d17d"><path d="M 12.839844 12.839844 L 362.160156 12.839844 L 362.160156 362.160156 L 12.839844 362.160156 Z M 12.839844 12.839844 " clip-rule="nonzero"/></clipPath><clipPath id="b8add6ae57"><path d="M 187.5 12.839844 C 91.039062 12.839844 12.839844 91.039062 12.839844 187.5 C 12.839844 283.960938 91.039062 362.160156 187.5 362.160156 C 283.960938 362.160156 362.160156 283.960938 362.160156 187.5 C 362.160156 91.039062 283.960938 12.839844 187.5 12.839844 Z M 187.5 12.839844 " clip-rule="nonzero"/></clipPath><linearGradient x1="-0.0000000842841" gradientTransform="matrix(1.36453, 0, 0, 1.36453, 12.840199, 12.84021)" y1="0" x2="255.999995" gradientUnits="userSpaceOnUse" y2="0" id="c30aa8d180"><stop stop-opacity="1" stop-color="rgb(25.898743%, 36.499023%, 95.698547%)" offset="0"/><stop stop-opacity="1" stop-color="rgb(25.814819%, 36.402893%, 95.529175%)" offset="0.0078125"/><stop stop-opacity="1" stop-color="rgb(25.645447%, 36.209106%, 95.191956%)" offset="0.015625"/><stop stop-opacity="1" stop-color="rgb(25.4776%, 36.016846%, 94.854736%)" offset="0.0234375"/><stop stop-opacity="1" stop-color="rgb(25.308228%, 35.823059%, 94.517517%)" offset="0.03125"/><stop stop-opacity="1" stop-color="rgb(25.138855%, 35.630798%, 94.180298%)" offset="0.0390625"/><stop stop-opacity="1" stop-color="rgb(24.971008%, 35.437012%, 93.843079%)" offset="0.046875"/><stop stop-opacity="1" stop-color="rgb(24.801636%, 35.244751%, 93.504333%)" offset="0.0546875"/><stop stop-opacity="1" stop-color="rgb(24.633789%, 35.050964%, 93.167114%)" offset="0.0625"/><stop stop-opacity="1" stop-color="rgb(24.464417%, 34.858704%, 92.829895%)" offset="0.0703125"/><stop stop-opacity="1" stop-color="rgb(24.295044%, 34.666443%, 92.492676%)" offset="0.078125"/><stop stop-opacity="1" stop-color="rgb(24.127197%, 34.472656%, 92.155457%)" offset="0.0859375"/><stop stop-opacity="1" stop-color="rgb(23.957825%, 34.280396%, 91.816711%)" offset="0.09375"/><stop stop-opacity="1" stop-color="rgb(23.789978%, 34.086609%, 91.479492%)" offset="0.101562"/><stop stop-opacity="1" stop-color="rgb(23.620605%, 33.894348%, 91.142273%)" offset="0.109375"/><stop stop-opacity="1" stop-color="rgb(23.451233%, 33.700562%, 90.805054%)" offset="0.117187"/><stop stop-opacity="1" stop-color="rgb(23.283386%, 33.508301%, 90.467834%)" offset="0.125"/><stop stop-opacity="1" stop-color="rgb(23.114014%, 33.314514%, 90.130615%)" offset="0.132812"/><stop stop-opacity="1" stop-color="rgb(22.946167%, 33.122253%, 89.79187%)" offset="0.140625"/><stop stop-opacity="1" stop-color="rgb(22.776794%, 32.928467%, 89.454651%)" offset="0.148438"/><stop stop-opacity="1" stop-color="rgb(22.607422%, 32.736206%, 89.117432%)" offset="0.15625"/><stop stop-opacity="1" stop-color="rgb(22.439575%, 32.542419%, 88.780212%)" offset="0.164062"/><stop stop-opacity="1" stop-color="rgb(22.270203%, 32.350159%, 88.442993%)" offset="0.171875"/><stop stop-opacity="1" stop-color="rgb(22.102356%, 32.156372%, 88.104248%)" offset="0.179687"/><stop stop-opacity="1" stop-color="rgb(21.932983%, 31.964111%, 87.767029%)" offset="0.1875"/><stop stop-opacity="1" stop-color="rgb(21.765137%, 31.771851%, 87.42981%)" offset="0.195313"/><stop stop-opacity="1" stop-color="rgb(21.595764%, 31.578064%, 87.09259%)" offset="0.203125"/><stop stop-opacity="1" stop-color="rgb(21.426392%, 31.385803%, 86.755371%)" offset="0.210938"/><stop stop-opacity="1" stop-color="rgb(21.258545%, 31.192017%, 86.416626%)" offset="0.21875"/><stop stop-opacity="1" stop-color="rgb(21.089172%, 30.999756%, 86.079407%)" offset="0.226562"/><stop stop-opacity="1" stop-color="rgb(20.921326%, 30.805969%, 85.742188%)" offset="0.234375"/><stop stop-opacity="1" stop-color="rgb(20.751953%, 30.613708%, 85.404968%)" offset="0.242188"/><stop stop-opacity="1" stop-color="rgb(20.582581%, 30.419922%, 85.067749%)" offset="0.25"/><stop stop-opacity="1" stop-color="rgb(20.414734%, 30.227661%, 84.73053%)" offset="0.257812"/><stop stop-opacity="1" stop-color="rgb(20.245361%, 30.033875%, 84.391785%)" offset="0.265625"/><stop stop-opacity="1" stop-color="rgb(20.077515%, 29.841614%, 84.054565%)" offset="0.273438"/><stop stop-opacity="1" stop-color="rgb(19.908142%, 29.647827%, 83.717346%)" offset="0.28125"/><stop stop-opacity="1" stop-color="rgb(19.73877%, 29.455566%, 83.380127%)" offset="0.289062"/><stop stop-opacity="1" stop-color="rgb(19.570923%, 29.263306%, 83.042908%)" offset="0.296875"/><stop stop-opacity="1" stop-color="rgb(19.40155%, 29.069519%, 82.704163%)" offset="0.304688"/><stop stop-opacity="1" stop-color="rgb(19.233704%, 28.877258%, 82.366943%)" offset="0.3125"/><stop stop-opacity="1" stop-color="rgb(19.064331%, 28.683472%, 82.029724%)" offset="0.320312"/><stop stop-opacity="1" stop-color="rgb(18.894958%, 28.491211%, 81.692505%)" offset="0.328125"/><stop stop-opacity="1" stop-color="rgb(18.727112%, 28.297424%, 81.355286%)" offset="0.335938"/><stop stop-opacity="1" stop-color="rgb(18.557739%, 28.105164%, 81.018066%)" offset="0.34375"/><stop stop-opacity="1" stop-color="rgb(18.389893%, 27.911377%, 80.679321%)" offset="0.351563"/><stop stop-opacity="1" stop-color="rgb(18.22052%, 27.719116%, 80.342102%)" offset="0.359375"/><stop stop-opacity="1" stop-color="rgb(18.052673%, 27.52533%, 80.004883%)" offset="0.367188"/><stop stop-opacity="1" stop-color="rgb(17.883301%, 27.333069%, 79.667664%)" offset="0.375"/><stop stop-opacity="1" stop-color="rgb(17.713928%, 27.139282%, 79.330444%)" offset="0.382813"/><stop stop-opacity="1" stop-color="rgb(17.546082%, 26.947021%, 78.991699%)" offset="0.390625"/><stop stop-opacity="1" stop-color="rgb(17.376709%, 26.753235%, 78.65448%)" offset="0.398438"/><stop stop-opacity="1" stop-color="rgb(17.208862%, 26.560974%, 78.317261%)" offset="0.40625"/><stop stop-opacity="1" stop-color="rgb(17.03949%, 26.368713%, 77.980042%)" offset="0.414063"/><stop stop-opacity="1" stop-color="rgb(16.870117%, 26.174927%, 77.642822%)" offset="0.421875"/><stop stop-opacity="1" stop-color="rgb(16.702271%, 25.982666%, 77.305603%)" offset="0.429688"/><stop stop-opacity="1" stop-color="rgb(16.532898%, 25.788879%, 76.966858%)" offset="0.4375"/><stop stop-opacity="1" stop-color="rgb(16.365051%, 25.596619%, 76.629639%)" offset="0.445313"/><stop stop-opacity="1" stop-color="rgb(16.195679%, 25.402832%, 76.292419%)" offset="0.453125"/><stop stop-opacity="1" stop-color="rgb(16.026306%, 25.210571%, 75.9552%)" offset="0.460938"/><stop stop-opacity="1" stop-color="rgb(15.858459%, 25.016785%, 75.617981%)" offset="0.46875"/><stop stop-opacity="1" stop-color="rgb(15.689087%, 24.824524%, 75.279236%)" offset="0.476562"/><stop stop-opacity="1" stop-color="rgb(15.52124%, 24.630737%, 74.942017%)" offset="0.484375"/><stop stop-opacity="1" stop-color="rgb(15.351868%, 24.438477%, 74.604797%)" offset="0.492188"/><stop stop-opacity="1" stop-color="rgb(15.182495%, 24.24469%, 74.267578%)" offset="0.5"/><stop stop-opacity="1" stop-color="rgb(15.014648%, 24.052429%, 73.930359%)" offset="0.507812"/><stop stop-opacity="1" stop-color="rgb(14.845276%, 23.860168%, 73.591614%)" offset="0.515625"/><stop stop-opacity="1" stop-color="rgb(14.677429%, 23.666382%, 73.254395%)" offset="0.523438"/><stop stop-opacity="1" stop-color="rgb(14.508057%, 23.474121%, 72.917175%)" offset="0.53125"/><stop stop-opacity="1" stop-color="rgb(14.338684%, 23.280334%, 72.579956%)" offset="0.539063"/><stop stop-opacity="1" stop-color="rgb(14.170837%, 23.088074%, 72.242737%)" offset="0.546875"/><stop stop-opacity="1" stop-color="rgb(14.001465%, 22.894287%, 71.905518%)" offset="0.554688"/><stop stop-opacity="1" stop-color="rgb(13.833618%, 22.702026%, 71.566772%)" offset="0.5625"/><stop stop-opacity="1" stop-color="rgb(13.664246%, 22.50824%, 71.229553%)" offset="0.570313"/><stop stop-opacity="1" stop-color="rgb(13.496399%, 22.315979%, 70.892334%)" offset="0.578125"/><stop stop-opacity="1" stop-color="rgb(13.327026%, 22.122192%, 70.555115%)" offset="0.585938"/><stop stop-opacity="1" stop-color="rgb(13.157654%, 21.929932%, 70.217896%)" offset="0.59375"/><stop stop-opacity="1" stop-color="rgb(12.989807%, 21.736145%, 69.87915%)" offset="0.601562"/><stop stop-opacity="1" stop-color="rgb(12.820435%, 21.543884%, 69.541931%)" offset="0.609375"/><stop stop-opacity="1" stop-color="rgb(12.652588%, 21.350098%, 69.204712%)" offset="0.617187"/><stop stop-opacity="1" stop-color="rgb(12.483215%, 21.157837%, 68.867493%)" offset="0.625"/><stop stop-opacity="1" stop-color="rgb(12.313843%, 20.965576%, 68.530273%)" offset="0.632812"/><stop stop-opacity="1" stop-color="rgb(12.145996%, 20.77179%, 68.193054%)" offset="0.640625"/><stop stop-opacity="1" stop-color="rgb(11.976624%, 20.579529%, 67.854309%)" offset="0.648438"/><stop stop-opacity="1" stop-color="rgb(11.808777%, 20.385742%, 67.51709%)" offset="0.65625"/><stop stop-opacity="1" stop-color="rgb(11.639404%, 20.193481%, 67.179871%)" offset="0.664062"/><stop stop-opacity="1" stop-color="rgb(11.470032%, 19.999695%, 66.842651%)" offset="0.671875"/><stop stop-opacity="1" stop-color="rgb(11.302185%, 19.807434%, 66.505432%)" offset="0.679688"/><stop stop-opacity="1" stop-color="rgb(11.132812%, 19.613647%, 66.166687%)" offset="0.6875"/><stop stop-opacity="1" stop-color="rgb(10.964966%, 19.421387%, 65.829468%)" offset="0.695312"/><stop stop-opacity="1" stop-color="rgb(10.795593%, 19.2276%, 65.492249%)" offset="0.703125"/><stop stop-opacity="1" stop-color="rgb(10.626221%, 19.035339%, 65.155029%)" offset="0.710938"/><stop stop-opacity="1" stop-color="rgb(10.458374%, 18.841553%, 64.81781%)" offset="0.71875"/><stop stop-opacity="1" stop-color="rgb(10.289001%, 18.649292%, 64.480591%)" offset="0.726562"/><stop stop-opacity="1" stop-color="rgb(10.121155%, 18.457031%, 64.141846%)" offset="0.734375"/><stop stop-opacity="1" stop-color="rgb(9.951782%, 18.263245%, 63.804626%)" offset="0.742188"/><stop stop-opacity="1" stop-color="rgb(9.78241%, 18.070984%, 63.467407%)" offset="0.75"/><stop stop-opacity="1" stop-color="rgb(9.614563%, 17.877197%, 63.130188%)" offset="0.757812"/><stop stop-opacity="1" stop-color="rgb(9.44519%, 17.684937%, 62.792969%)" offset="0.765625"/><stop stop-opacity="1" stop-color="rgb(9.277344%, 17.49115%, 62.454224%)" offset="0.773438"/><stop stop-opacity="1" stop-color="rgb(9.107971%, 17.298889%, 62.117004%)" offset="0.78125"/><stop stop-opacity="1" stop-color="rgb(8.940125%, 17.105103%, 61.779785%)" offset="0.789062"/><stop stop-opacity="1" stop-color="rgb(8.770752%, 16.912842%, 61.442566%)" offset="0.796875"/><stop stop-opacity="1" stop-color="rgb(8.601379%, 16.719055%, 61.105347%)" offset="0.804688"/><stop stop-opacity="1" stop-color="rgb(8.433533%, 16.526794%, 60.768127%)" offset="0.8125"/><stop stop-opacity="1" stop-color="rgb(8.26416%, 16.333008%, 60.429382%)" offset="0.820312"/><stop stop-opacity="1" stop-color="rgb(8.096313%, 16.140747%, 60.092163%)" offset="0.828125"/><stop stop-opacity="1" stop-color="rgb(7.926941%, 15.94696%, 59.754944%)" offset="0.835938"/><stop stop-opacity="1" stop-color="rgb(7.757568%, 15.7547%, 59.417725%)" offset="0.84375"/><stop stop-opacity="1" stop-color="rgb(7.589722%, 15.562439%, 59.080505%)" offset="0.851562"/><stop stop-opacity="1" stop-color="rgb(7.420349%, 15.368652%, 58.74176%)" offset="0.859375"/><stop stop-opacity="1" stop-color="rgb(7.252502%, 15.176392%, 58.404541%)" offset="0.867188"/><stop stop-opacity="1" stop-color="rgb(7.08313%, 14.982605%, 58.067322%)" offset="0.875"/><stop stop-opacity="1" stop-color="rgb(6.913757%, 14.790344%, 57.730103%)" offset="0.882812"/><stop stop-opacity="1" stop-color="rgb(6.745911%, 14.596558%, 57.392883%)" offset="0.890625"/><stop stop-opacity="1" stop-color="rgb(6.576538%, 14.404297%, 57.054138%)" offset="0.898438"/><stop stop-opacity="1" stop-color="rgb(6.408691%, 14.21051%, 56.716919%)" offset="0.90625"/><stop stop-opacity="1" stop-color="rgb(6.239319%, 14.01825%, 56.3797%)" offset="0.914062"/><stop stop-opacity="1" stop-color="rgb(6.069946%, 13.824463%, 56.04248%)" offset="0.921875"/><stop stop-opacity="1" stop-color="rgb(5.9021%, 13.632202%, 55.705261%)" offset="0.929688"/><stop stop-opacity="1" stop-color="rgb(5.732727%, 13.438416%, 55.368042%)" offset="0.9375"/><stop stop-opacity="1" stop-color="rgb(5.56488%, 13.246155%, 55.029297%)" offset="0.945312"/><stop stop-opacity="1" stop-color="rgb(5.395508%, 13.053894%, 54.692078%)" offset="0.953125"/><stop stop-opacity="1" stop-color="rgb(5.227661%, 12.860107%, 54.354858%)" offset="0.960938"/><stop stop-opacity="1" stop-color="rgb(5.058289%, 12.667847%, 54.017639%)" offset="0.96875"/><stop stop-opacity="1" stop-color="rgb(4.888916%, 12.47406%, 53.68042%)" offset="0.976562"/><stop stop-opacity="1" stop-color="rgb(4.721069%, 12.281799%, 53.341675%)" offset="0.984375"/><stop stop-opacity="1" stop-color="rgb(4.551697%, 12.088013%, 53.004456%)" offset="0.992188"/><stop stop-opacity="1" stop-color="rgb(4.38385%, 11.895752%, 52.667236%)" offset="1"/></linearGradient><clipPath id="f19c105ba5"><path d="M 12.839844 12.839844 L 362.152344 12.839844 L 362.152344 362.152344 L 12.839844 362.152344 Z M 12.839844 12.839844 " clip-rule="nonzero"/></clipPath><clipPath id="0db6c36f15"><path d="M 187.496094 12.839844 C 91.035156 12.839844 12.839844 91.035156 12.839844 187.496094 C 12.839844 283.957031 91.035156 362.152344 187.496094 362.152344 C 283.957031 362.152344 362.152344 283.957031 362.152344 187.496094 C 362.152344 91.035156 283.957031 12.839844 187.496094 12.839844 Z M 187.496094 12.839844 " clip-rule="nonzero"/></clipPath></defs><g clip-path="url(#fa9b92d17d)"><g clip-path="url(#b8add6ae57)"><path fill="url(#c30aa8d180)" d="M 12.839844 12.839844 L 12.839844 362.160156 L 362.160156 362.160156 L 362.160156 12.839844 Z M 12.839844 12.839844 " fill-rule="nonzero"/></g></g><g clip-path="url(#f19c105ba5)"><g clip-path="url(#0db6c36f15)"><path stroke-linecap="butt" transform="matrix(0.75, 0, 0, 0.75, 12.840199, 12.840194)" fill="none" stroke-linejoin="miter" d="M 232.874542 -0.000467369 C 104.25995 -0.000467369 -0.000473369 104.259956 -0.000473369 232.874548 C -0.000473369 361.48914 104.25995 465.749563 232.874542 465.749563 C 361.489134 465.749563 465.749557 361.48914 465.749557 232.874548 C 465.749557 104.259956 361.489134 -0.000467369 232.874542 -0.000467369 Z M 232.874542 -0.000467369 " stroke="#000000" stroke-width="24" stroke-opacity="1" stroke-miterlimit="4"/></g></g><g fill="#000000" fill-opacity="1"><g transform="translate(43.211632, 269.908086)"><g><path d="M 48.953125 1.859375 C 35.492188 1.859375 24.859375 -1.851562 17.046875 -9.28125 C 9.242188 -16.707031 5.34375 -26.835938 5.34375 -39.671875 C 5.34375 -41.210938 5.492188 -43.84375 5.796875 -47.5625 L 14.15625 -115.296875 C 16.007812 -130.304688 21.960938 -142.21875 32.015625 -151.03125 C 42.066406 -159.84375 54.519531 -164.25 69.375 -164.25 C 82.820312 -164.25 93.488281 -160.578125 101.375 -153.234375 C 109.269531 -145.890625 113.21875 -135.796875 113.21875 -122.953125 C 113.21875 -121.566406 113.0625 -119.015625 112.75 -115.296875 L 112.515625 -114.140625 C 112.359375 -113.054688 111.929688 -112.164062 111.234375 -111.46875 C 110.546875 -110.78125 109.738281 -110.4375 108.8125 -110.4375 L 73.078125 -109.265625 C 70.753906 -109.265625 69.75 -110.347656 70.0625 -112.515625 L 70.765625 -118.3125 C 71.066406 -120.945312 70.675781 -123.035156 69.59375 -124.578125 C 68.507812 -126.128906 66.960938 -126.90625 64.953125 -126.90625 C 62.796875 -126.90625 60.976562 -126.128906 59.5 -124.578125 C 58.03125 -123.035156 57.144531 -120.945312 56.84375 -118.3125 L 47.796875 -43.84375 C 47.484375 -41.375 47.828125 -39.363281 48.828125 -37.8125 C 49.835938 -36.269531 51.425781 -35.5 53.59375 -35.5 C 55.757812 -35.5 57.578125 -36.234375 59.046875 -37.703125 C 60.515625 -39.171875 61.40625 -41.21875 61.71875 -43.84375 L 62.40625 -50.109375 C 62.5625 -51.191406 62.988281 -52.003906 63.6875 -52.546875 C 64.382812 -53.085938 65.195312 -53.359375 66.125 -53.359375 L 101.609375 -52.203125 C 102.691406 -52.203125 103.503906 -51.851562 104.046875 -51.15625 C 104.585938 -50.457031 104.78125 -49.566406 104.625 -48.484375 L 104.40625 -47.5625 C 102.539062 -32.5625 96.539062 -20.570312 86.40625 -11.59375 C 76.28125 -2.625 63.796875 1.859375 48.953125 1.859375 Z M 48.953125 1.859375 "/></g></g></g><g fill="#000000" fill-opacity="1"><g transform="translate(150.397744, 269.908086)"><g><path d="M 107.1875 -128.53125 C 107.03125 -127.445312 106.601562 -126.59375 105.90625 -125.96875 C 105.207031 -125.351562 104.316406 -125.046875 103.234375 -125.046875 L 60.09375 -125.046875 C 59.3125 -125.046875 58.921875 -124.660156 58.921875 -123.890625 L 56.140625 -101.15625 C 55.835938 -100.375 56.148438 -99.984375 57.078125 -99.984375 L 79.578125 -99.984375 C 80.660156 -99.984375 81.472656 -99.675781 82.015625 -99.0625 C 82.554688 -98.445312 82.75 -97.597656 82.59375 -96.515625 L 78.875 -66.125 C 78.414062 -63.800781 77.101562 -62.640625 74.9375 -62.640625 L 52.4375 -62.640625 C 51.65625 -62.640625 51.265625 -62.253906 51.265625 -61.484375 L 44.078125 -3.484375 C 43.921875 -2.398438 43.492188 -1.546875 42.796875 -0.921875 C 42.109375 -0.304688 41.300781 0 40.375 0 L 4.640625 0 C 3.710938 0 2.976562 -0.304688 2.4375 -0.921875 C 1.894531 -1.546875 1.703125 -2.398438 1.859375 -3.484375 L 20.875 -158.921875 C 21.03125 -160.003906 21.457031 -160.851562 22.15625 -161.46875 C 22.851562 -162.09375 23.664062 -162.40625 24.59375 -162.40625 L 107.875 -162.40625 C 108.957031 -162.40625 109.769531 -162.09375 110.3125 -161.46875 C 110.851562 -160.851562 111.046875 -160.003906 110.890625 -158.921875 Z M 107.1875 -128.53125 "/></g></g></g><g fill="#000000" fill-opacity="1"><g transform="translate(247.60763, 269.908086)"><g><path d="M 4.640625 0 C 3.710938 0 2.976562 -0.304688 2.4375 -0.921875 C 1.894531 -1.546875 1.703125 -2.398438 1.859375 -3.484375 L 20.875 -158.921875 C 21.03125 -160.003906 21.457031 -160.851562 22.15625 -161.46875 C 22.851562 -162.09375 23.664062 -162.40625 24.59375 -162.40625 L 60.3125 -162.40625 C 61.25 -162.40625 61.988281 -162.09375 62.53125 -161.46875 C 63.070312 -160.851562 63.265625 -160.003906 63.109375 -158.921875 L 48.484375 -38.515625 C 48.179688 -37.742188 48.492188 -37.359375 49.421875 -37.359375 L 93.5 -37.359375 C 94.582031 -37.359375 95.394531 -37.046875 95.9375 -36.421875 C 96.476562 -35.804688 96.671875 -34.957031 96.515625 -33.875 L 92.796875 -3.484375 C 92.335938 -1.160156 91.023438 0 88.859375 0 Z M 4.640625 0 "/></g></g></g><g fill="#d93369" fill-opacity="1"><g transform="translate(35.060726, 258.267384)"><g><path d="M 48.953125 1.859375 C 35.492188 1.859375 24.859375 -1.851562 17.046875 -9.28125 C 9.242188 -16.707031 5.34375 -26.835938 5.34375 -39.671875 C 5.34375 -41.210938 5.492188 -43.84375 5.796875 -47.5625 L 14.15625 -115.296875 C 16.007812 -130.304688 21.960938 -142.21875 32.015625 -151.03125 C 42.066406 -159.84375 54.519531 -164.25 69.375 -164.25 C 82.820312 -164.25 93.488281 -160.578125 101.375 -153.234375 C 109.269531 -145.890625 113.21875 -135.796875 113.21875 -122.953125 C 113.21875 -121.566406 113.0625 -119.015625 112.75 -115.296875 L 112.515625 -114.140625 C 112.359375 -113.054688 111.929688 -112.164062 111.234375 -111.46875 C 110.546875 -110.78125 109.738281 -110.4375 108.8125 -110.4375 L 73.078125 -109.265625 C 70.753906 -109.265625 69.75 -110.347656 70.0625 -112.515625 L 70.765625 -118.3125 C 71.066406 -120.945312 70.675781 -123.035156 69.59375 -124.578125 C 68.507812 -126.128906 66.960938 -126.90625 64.953125 -126.90625 C 62.796875 -126.90625 60.976562 -126.128906 59.5 -124.578125 C 58.03125 -123.035156 57.144531 -120.945312 56.84375 -118.3125 L 47.796875 -43.84375 C 47.484375 -41.375 47.828125 -39.363281 48.828125 -37.8125 C 49.835938 -36.269531 51.425781 -35.5 53.59375 -35.5 C 55.757812 -35.5 57.578125 -36.234375 59.046875 -37.703125 C 60.515625 -39.171875 61.40625 -41.21875 61.71875 -43.84375 L 62.40625 -50.109375 C 62.5625 -51.191406 62.988281 -52.003906 63.6875 -52.546875 C 64.382812 -53.085938 65.195312 -53.359375 66.125 -53.359375 L 101.609375 -52.203125 C 102.691406 -52.203125 103.503906 -51.851562 104.046875 -51.15625 C 104.585938 -50.457031 104.78125 -49.566406 104.625 -48.484375 L 104.40625 -47.5625 C 102.539062 -32.5625 96.539062 -20.570312 86.40625 -11.59375 C 76.28125 -2.625 63.796875 1.859375 48.953125 1.859375 Z M 48.953125 1.859375 "/></g></g></g><g fill="#d93369" fill-opacity="1"><g transform="translate(142.246838, 258.267384)"><g><path d="M 107.1875 -128.53125 C 107.03125 -127.445312 106.601562 -126.59375 105.90625 -125.96875 C 105.207031 -125.351562 104.316406 -125.046875 103.234375 -125.046875 L 60.09375 -125.046875 C 59.3125 -125.046875 58.921875 -124.660156 58.921875 -123.890625 L 56.140625 -101.15625 C 55.835938 -100.375 56.148438 -99.984375 57.078125 -99.984375 L 79.578125 -99.984375 C 80.660156 -99.984375 81.472656 -99.675781 82.015625 -99.0625 C 82.554688 -98.445312 82.75 -97.597656 82.59375 -96.515625 L 78.875 -66.125 C 78.414062 -63.800781 77.101562 -62.640625 74.9375 -62.640625 L 52.4375 -62.640625 C 51.65625 -62.640625 51.265625 -62.253906 51.265625 -61.484375 L 44.078125 -3.484375 C 43.921875 -2.398438 43.492188 -1.546875 42.796875 -0.921875 C 42.109375 -0.304688 41.300781 0 40.375 0 L 4.640625 0 C 3.710938 0 2.976562 -0.304688 2.4375 -0.921875 C 1.894531 -1.546875 1.703125 -2.398438 1.859375 -3.484375 L 20.875 -158.921875 C 21.03125 -160.003906 21.457031 -160.851562 22.15625 -161.46875 C 22.851562 -162.09375 23.664062 -162.40625 24.59375 -162.40625 L 107.875 -162.40625 C 108.957031 -162.40625 109.769531 -162.09375 110.3125 -161.46875 C 110.851562 -160.851562 111.046875 -160.003906 110.890625 -158.921875 Z M 107.1875 -128.53125 "/></g></g></g><g fill="#d93369" fill-opacity="1"><g transform="translate(239.456724, 258.267384)"><g><path d="M 4.640625 0 C 3.710938 0 2.976562 -0.304688 2.4375 -0.921875 C 1.894531 -1.546875 1.703125 -2.398438 1.859375 -3.484375 L 20.875 -158.921875 C 21.03125 -160.003906 21.457031 -160.851562 22.15625 -161.46875 C 22.851562 -162.09375 23.664062 -162.40625 24.59375 -162.40625 L 60.3125 -162.40625 C 61.25 -162.40625 61.988281 -162.09375 62.53125 -161.46875 C 63.070312 -160.851562 63.265625 -160.003906 63.109375 -158.921875 L 48.484375 -38.515625 C 48.179688 -37.742188 48.492188 -37.359375 49.421875 -37.359375 L 93.5 -37.359375 C 94.582031 -37.359375 95.394531 -37.046875 95.9375 -36.421875 C 96.476562 -35.804688 96.671875 -34.957031 96.515625 -33.875 L 92.796875 -3.484375 C 92.335938 -1.160156 91.023438 0 88.859375 0 Z M 4.640625 0 "/></g></g></g></svg>